<?xml version="1.0" encoding="UTF-8"?>
<svg width="100px" height="100px" viewBox="0 0 100 100" version="1.1" xmlns="http://www.w3.org/2000/svg" xmlns:xlink="http://www.w3.org/1999/xlink">
    <!-- Generator: sketchtool 52.6 (67491) - http://www.bohemiancoding.com/sketch -->
    <title>A4B332D3-B48C-46AC-AEDB-EA7112AF07CE</title>
    <desc>Created with sketchtool.</desc>
    <g id="Page-1" stroke="none" stroke-width="1" fill="none" fill-rule="evenodd">
        <g id="Artboard" transform="translate(-974.000000, -2843.000000)" fill="#FFFFFF">
            <g id="Group-5" transform="translate(974.000000, 2843.000000)">
                <path d="M95,0 L5,0 C2,0 0,2 0,5 L0,95 C0,98 2,100 5,100 L95,100 C98,100 100,98 100,95 L100,5 C100,2 98,0 95,0 Z M80,5 C83,5 85,7 85,10 C85,13 83,15 80,15 C77,15 75,13 75,10 C75,7 77,5 80,5 Z M60,5 C63,5 65,7 65,10 C65,13 63,15 60,15 C57,15 55,13 55,10 C55,7 57,5 60,5 Z M90,90 L10,90 L10,20 L90,20 L90,90 Z" id="Fill-1"></path>
                <path d="M22,80 L38,80 C39,80 40,79 40,78 L40,32 C40,31 39,30 38,30 L22,30 C21,30 20,31 20,32 L20,78 C20,79 21,80 22,80 Z" id="Fill-2"></path>
                <path d="M52,50 L78,50 C79,50 80,49 80,48 L80,32 C80,31 79,30 78,30 L52,30 C51,30 50,31 50,32 L50,48 C50,49 51,50 52,50 Z" id="Fill-3"></path>
                <path d="M52,80 L78,80 C79,80 80,79 80,78 L80,62 C80,61 79,60 78,60 L52,60 C51,60 50,61 50,62 L50,78 C50,79 51,80 52,80 Z" id="Fill-4"></path>
            </g>
        </g>
    </g>
</svg>