<?xml version="1.0" encoding="UTF-8"?>
<svg width="106px" height="117px" viewBox="0 0 106 117" version="1.1" xmlns="http://www.w3.org/2000/svg" xmlns:xlink="http://www.w3.org/1999/xlink">
    <!-- Generator: sketchtool 52.6 (67491) - http://www.bohemiancoding.com/sketch -->
    <title>60D9E81B-5B77-4B75-9CD7-6ACCF6504DED</title>
    <desc>Created with sketchtool.</desc>
    <g id="Page-1" stroke="none" stroke-width="1" fill="none" fill-rule="evenodd">
        <g id="Artboard" transform="translate(-515.000000, -2838.000000)" fill="#FFFFFF">
            <path d="M620.955903,2877.3759 C620.960986,2875.55291 620.752778,2873.76541 620.178945,2872.03875 C618.513385,2866.99618 615.705124,2862.81681 611.002764,2860.10007 C600.084844,2853.79299 589.151063,2847.50125 578.254462,2841.15387 C575.293972,2839.42734 572.135362,2838.55894 568.743142,2838.46755 C565.010712,2838.37106 561.461061,2839.04645 558.170501,2840.95588 C547.171331,2847.33394 536.1056,2853.6106 525.156999,2860.08018 C518.631649,2863.94469 515.193669,2869.87074 515.112419,2877.44688 C514.980391,2890.11174 515.081951,2902.78128 515.071794,2915.45108 C515.071794,2917.40108 515.310461,2919.31052 515.960461,2921.14872 C517.681921,2926.04907 520.464701,2930.1065 525.070601,2932.75733 C535.907272,2938.99837 546.744203,2945.23941 557.544603,2951.54104 C560.383283,2953.19646 563.369254,2954.17653 566.629394,2954.35437 C570.610644,2954.57273 574.398974,2953.92781 577.907934,2951.89152 C588.830925,2945.54894 599.759636,2939.21651 610.722536,2932.94011 C613.779616,2931.18303 616.140936,2928.80143 617.933507,2925.81546 C619.665107,2922.93622 620.883857,2919.86393 620.914407,2916.46157 C620.970268,2909.78893 620.929643,2903.11057 620.929643,2896.43897 L620.944879,2896.43897 C620.949949,2890.08119 620.944879,2883.72848 620.955032,2877.37577 L620.955903,2877.3759 Z M563.6285,2912.4408 L556.249959,2919.81934 C555.640584,2920.42872 554.812809,2920.76895 553.949609,2920.76895 C553.086331,2920.76895 552.258569,2920.42365 551.649259,2919.81934 L536.318358,2904.47804 C535.04883,2903.20851 535.04883,2901.15186 536.318358,2899.88228 L558.266259,2877.93438 C559.535787,2876.66485 561.592439,2876.66485 562.86202,2877.93438 L578.20332,2893.27568 C578.812695,2893.88506 579.152931,2894.71283 579.152931,2895.57603 C579.152931,2896.43923 578.807625,2897.26707 578.20332,2897.87638 L575.23776,2900.84194 C573.968232,2902.11147 571.91158,2902.11147 570.642,2900.84194 C569.372472,2899.57241 569.372472,2897.51576 570.642,2896.24618 L571.307236,2895.57587 L560.561955,2884.83059 L543.209554,2902.183 L553.949765,2912.92828 L559.027825,2907.85022 C560.297353,2906.58069 562.354005,2906.58069 563.623586,2907.85022 C564.898197,2909.11467 564.898197,2911.17133 563.628669,2912.44078 L563.6285,2912.4408 Z M599.682702,2892.9759 L577.7348,2914.9238 C577.125425,2915.53318 576.29765,2915.87341 575.43445,2915.87341 C574.57125,2915.87341 573.74341,2915.52811 573.1341,2914.9238 L557.803199,2899.5825 C556.533671,2898.31297 556.533671,2896.25632 557.803199,2894.98674 L560.763689,2892.02625 C562.033217,2890.75672 564.08987,2890.75672 565.35945,2892.02625 C566.628978,2893.29578 566.628978,2895.35243 565.35945,2896.62201 L564.694214,2897.28725 L575.434424,2908.03253 L592.792025,2890.67493 L582.046745,2879.92965 L576.968684,2885.00771 C575.699156,2886.27723 573.642504,2886.27723 572.372924,2885.00771 C571.103396,2883.73818 571.103396,2881.68153 572.372924,2880.41195 L579.751464,2873.03341 C580.970215,2871.81466 583.128475,2871.81466 584.347225,2873.03341 L599.688526,2888.37471 C600.297901,2888.98408 600.638137,2889.81186 600.638137,2890.67506 C600.638137,2891.53833 600.297901,2892.3661 599.683443,2892.97541 L599.682702,2892.9759 Z" id="Fill-1"></path>
        </g>
    </g>
</svg>